<?xml version="1.0" encoding="UTF-8"?><svg id="a" xmlns="http://www.w3.org/2000/svg" viewBox="0 0 383.1 284.71"><defs><style>.b{fill:#67ada9;}.c{fill:#e3bc3d;}.d{fill:#f0ba7d;}.e{fill:#7d579a;}.f{fill:#65994c;}.g{fill:#a35563;}.h{fill:#478eb0;}.i{fill:#313f76;}</style></defs><g><polygon class="i" points="242.04 158.68 242.04 158.69 242.04 158.68 242.04 158.68"/><polygon class="i" points="254.92 158.68 254.92 158.69 254.92 158.68 254.92 158.68"/><path class="i" d="M193.64,0c13.63,10.35,24.56,24.78,29.51,41.29,1.93,5.83,3.62,11.8,3.83,17.95,.23,3.02,.63,7.79,.87,10.81,.83,15.08,7.94,21.82,18.15,31.65,.91,.9,2.1,1.6,2.62,2.75,.16,.44,.26,1.22,.21,1.81-.05,.87-.29,1.78-.88,2.41l.17-.16c-2.4,2.32-5.38,3.55-7.77,5.91-2.15,2.44-.69,6.06,.73,8.43,.54,.99,1.13,1.8,1.09,2.75-.76,5.02-7.2,6.7-11.14,8.38l5.77,2.08c1.28,.48,2.88,1.17,3.72,2.11,.36,.85,.66,1.93,.48,2.83-.06,.44-.34,.95-.56,1.27-1.98,2.36-3.93,5-4.33,8.19-.22,1.47-.11,2.97,.21,4.42,5.08,23.33-19.8,17.72-34.35,20.34-5.23,.48-8.93,4.76-9.93,9.74-1.63,5.92-2.34,12.05-2.89,18.15-.1,1.22-.19,2.44-.26,3.66,.87-6,1.9-12,3.46-17.86,.97-3.19,1.78-6.78,4.28-9.14,5.29-3.82,12.55-2.02,18.71-2.59,6.83-.31,14.45,.21,20.06-4.43,4.32-3.5,5.63-9.54,5.17-14.85-.34-3.74-1.67-7.37,1.16-10.54,1.42-1.81,2.78-3.01,3.23-5.38,.88-5.43-2.02-8.71-6.93-10.34l.09,4.41c4.17-1.71,7.94-5.58,8.29-10.28,.29-3.15-2.34-5.46-2.9-8.27,0,.03-.03,.18-.06,.2-.01,.02-.01,.02,.01-.01,2.38-1.89,5.23-3.43,7.45-5.59,2.3-2.59,2.74-6.56,1.48-9.73-.58-1.58-2.57-3.3-3.44-3.98-3.25-3.01-6.41-6.25-9.46-9.47-3.17-3.07-5.25-7.05-6.51-11.31-1.17-3.68-1.4-6.8-1.78-10.64-.63-5.02-.9-11.44-2.12-16.35-5.04-20.67-17.2-39.37-35.46-50.59Z"/><polygon class="i" points="266.68 158.68 266.68 158.69 266.68 158.68 266.68 158.68"/><circle class="i" cx="175" cy="67.22" r="20.39"/><circle class="h" cx="195.38" cy="36.08" r="5.95"/><circle class="f" cx="209.62" cy="63.98" r="7.55"/><circle class="g" cx="166.3" cy="33.06" r="6.86"/><circle class="e" cx="169.42" cy="103.38" r="11.65"/><circle class="h" cx="144.89" cy="127.04" r="9.72"/><circle class="i" cx="196.11" cy="88.83" r="5.06"/><circle class="i" cx="120.97" cy="103.38" r="4.36"/><circle class="b" cx="123.34" cy="56.44" r="4.36"/><circle class="i" cx="144.44" cy="81.94" r="3.93"/><circle class="e" cx="145.44" cy="58.47" r="5.51"/><circle class="c" cx="144.89" cy="36.08" r="3.48"/><circle class="f" cx="122.62" cy="81.63" r="6.2"/><circle class="d" cx="140.23" cy="103.37" r="4.21"/></g><g><path class="i" d="M3.94,271.69v-27.06h7.22c1.5,0,2.75,.3,3.74,.9,.99,.6,1.74,1.36,2.24,2.27,.5,.91,.75,1.85,.75,2.81,0,1.1-.3,2.1-.9,2.99-.6,.89-1.4,1.57-2.41,2.03,1.18,.38,2.2,.95,3.05,1.7,.85,.75,1.51,1.64,1.98,2.66,.47,1.02,.71,2.13,.71,3.34,0,1.1-.21,2.16-.62,3.16-.41,1-1,1.89-1.77,2.68-.77,.78-1.72,1.4-2.84,1.85-1.12,.45-2.41,.68-3.85,.68H3.94Zm2.38-16.87h4.57c.98,0,1.83-.17,2.54-.51,.71-.34,1.26-.82,1.64-1.43,.38-.61,.57-1.32,.57-2.12s-.19-1.5-.57-2.1-.91-1.07-1.59-1.41-1.49-.51-2.44-.51H6.31v8.09Zm0,14.76h4.66c1.56,0,2.86-.3,3.89-.9,1.03-.6,1.8-1.39,2.32-2.38,.51-.98,.77-2.01,.77-3.1s-.25-2.14-.75-3.11c-.5-.97-1.28-1.76-2.35-2.38s-2.42-.92-4.06-.92H6.31v12.78Z"/><path class="i" d="M25.35,271.69v-17.59h2.04v4c.66-1.32,1.58-2.35,2.77-3.07,1.18-.72,2.54-1.08,4.06-1.08l.57,2.19c-.16-.04-.32-.06-.48-.08-.16,0-.32-.01-.48-.01-1.18,0-2.25,.27-3.19,.81-.94,.54-1.69,1.32-2.24,2.33s-.83,2.22-.83,3.62v8.87h-2.23Z"/><path class="i" d="M45.41,271.94c-1.22,0-2.36-.23-3.41-.69-1.05-.46-1.98-1.11-2.8-1.94-.81-.83-1.45-1.79-1.91-2.89-.46-1.09-.69-2.26-.69-3.5s.23-2.44,.69-3.52c.46-1.08,1.1-2.04,1.91-2.87,.81-.83,1.74-1.48,2.8-1.95,1.05-.47,2.19-.71,3.41-.71,1.44,0,2.77,.32,3.97,.96,1.2,.64,2.19,1.49,2.95,2.56v-3.28h2.07v17.59h-2.07v-3.28c-.76,1.06-1.74,1.91-2.95,2.56-1.2,.64-2.53,.96-3.97,.96Zm.27-2.08c1.26,0,2.41-.31,3.44-.93,1.03-.62,1.85-1.46,2.47-2.51,.61-1.05,.92-2.22,.92-3.5s-.31-2.46-.92-3.52c-.61-1.06-1.43-1.9-2.47-2.53-1.03-.62-2.18-.93-3.44-.93s-2.41,.31-3.44,.93c-1.03,.62-1.85,1.46-2.47,2.51-.61,1.05-.92,2.23-.92,3.53s.31,2.45,.92,3.5c.61,1.05,1.43,1.89,2.47,2.51,1.03,.62,2.18,.93,3.44,.93Z"/><path class="i" d="M61.65,250.31c-.3,0-.57-.07-.81-.21-.24-.14-.44-.33-.59-.59s-.23-.52-.23-.8c0-.32,.08-.6,.23-.84,.15-.24,.35-.44,.59-.59s.51-.23,.81-.23,.57,.08,.81,.23c.24,.15,.44,.35,.59,.59,.15,.24,.23,.52,.23,.84,0,.28-.08,.55-.23,.8s-.35,.45-.59,.59c-.24,.14-.51,.21-.81,.21Zm-1.11,21.38v-17.59h2.23v17.59h-2.23Z"/><path class="i" d="M68.95,271.69v-17.59h2.04v3.46c.64-1.22,1.52-2.17,2.65-2.83,1.12-.66,2.36-.99,3.7-.99s2.49,.32,3.56,.96c1.07,.64,1.93,1.55,2.59,2.72,.65,1.17,.98,2.57,.98,4.2v10.07h-2.23v-9.74c0-1.8-.5-3.27-1.5-4.39-1-1.12-2.31-1.68-3.91-1.68-1,0-1.94,.25-2.8,.74-.86,.49-1.55,1.18-2.07,2.07-.52,.89-.78,1.96-.78,3.2v9.8h-2.23Z"/><path class="i" d="M107.62,272.06c-1.6,0-3.05-.35-4.33-1.05-1.28-.7-2.3-1.66-3.05-2.89-.75-1.22-1.13-2.63-1.13-4.21,0-1.22,.24-2.31,.72-3.26,.48-.95,1.12-1.79,1.92-2.51,.8-.72,1.68-1.34,2.65-1.86l-1.02-1.35c-.58-.8-1.05-1.57-1.4-2.32-.35-.74-.53-1.54-.53-2.41,0-1.12,.27-2.13,.81-3.02,.54-.89,1.27-1.6,2.18-2.12,.91-.52,1.92-.78,3.02-.78s2.14,.26,3.04,.78c.9,.52,1.62,1.22,2.17,2.1,.54,.88,.81,1.86,.81,2.95,0,1.02-.23,1.91-.69,2.66-.46,.75-1.05,1.4-1.76,1.94-.71,.54-1.46,1.02-2.24,1.44l-1.26,.66,7.25,9.59c.66-.76,1.21-1.61,1.64-2.54,.43-.93,.73-1.91,.89-2.93l1.62,2.23c-.32,.96-.74,1.85-1.26,2.68s-1.1,1.57-1.74,2.25l2.77,3.61h-2.68l-1.74-2.29c-1.04,.9-2.12,1.57-3.23,2s-2.25,.65-3.41,.65Zm.15-2.08c.94,0,1.86-.18,2.75-.54,.89-.36,1.78-.88,2.66-1.56l-7.61-10.04c-.8,.42-1.51,.92-2.13,1.5-.62,.58-1.11,1.24-1.47,1.97-.36,.73-.54,1.58-.54,2.54,0,1.14,.27,2.18,.81,3.11,.54,.93,1.28,1.67,2.23,2.21,.94,.54,2.04,.81,3.31,.81Zm-1.38-14.76l1.41-.78c.64-.34,1.22-.72,1.74-1.13,.52-.41,.94-.88,1.25-1.41,.31-.53,.47-1.15,.47-1.85s-.17-1.37-.5-1.94c-.33-.57-.78-1.02-1.34-1.35-.56-.33-1.21-.5-1.95-.5s-1.37,.17-1.94,.51-1.02,.79-1.35,1.35c-.33,.56-.5,1.19-.5,1.89,0,.58,.14,1.14,.41,1.68,.27,.54,.68,1.2,1.22,1.98l1.08,1.53Z"/><path class="i" d="M133.24,271.69v-27.06h12.81v2.13h-10.43v7.19h8.33v2.1h-8.33v13.5h10.43v2.13h-12.81Z"/><path class="i" d="M148.85,271.69l6.5-9.35-5.68-8.24h2.62l2.47,3.64c.34,.5,.68,1.02,1.02,1.55,.34,.53,.65,1.08,.93,1.64,.28-.56,.59-1.11,.93-1.64,.34-.53,.68-1.05,1.02-1.55l2.47-3.64h2.56l-5.65,8.21,6.47,9.38h-2.68l-3.16-4.69c-.34-.52-.69-1.05-1.04-1.59-.35-.54-.69-1.1-1.01-1.68-.3,.58-.63,1.14-.98,1.68-.35,.54-.7,1.07-1.04,1.59l-3.16,4.69h-2.59Z"/><path class="i" d="M168.42,280.72v-26.61h2.08v3.28c.78-1.06,1.77-1.91,2.96-2.56,1.19-.64,2.5-.96,3.92-.96,1.22,0,2.37,.24,3.43,.71,1.06,.47,2,1.12,2.81,1.95,.81,.83,1.45,1.79,1.91,2.87s.69,2.25,.69,3.52-.23,2.41-.69,3.5-1.1,2.06-1.91,2.89c-.81,.83-1.75,1.48-2.81,1.94-1.06,.46-2.21,.69-3.43,.69-1.36,0-2.63-.3-3.79-.9-1.16-.6-2.13-1.4-2.92-2.41v12.09h-2.26Zm8.72-10.86c1.26,0,2.41-.31,3.44-.93,1.03-.62,1.85-1.46,2.47-2.51,.61-1.05,.92-2.22,.92-3.5s-.31-2.46-.92-3.52c-.61-1.06-1.43-1.9-2.47-2.53-1.03-.62-2.18-.93-3.44-.93s-2.41,.31-3.44,.93c-1.03,.62-1.85,1.46-2.47,2.51-.61,1.05-.92,2.23-.92,3.53s.31,2.45,.92,3.5,1.43,1.89,2.47,2.51c1.03,.62,2.18,.93,3.44,.93Z"/><path class="i" d="M199.19,272.06c-1.34,0-2.59-.24-3.74-.71-1.15-.47-2.16-1.13-3.02-1.97s-1.54-1.83-2.03-2.98c-.49-1.14-.74-2.38-.74-3.7s.23-2.44,.69-3.52c.46-1.08,1.1-2.03,1.92-2.84,.82-.81,1.77-1.45,2.86-1.91,1.08-.46,2.24-.69,3.46-.69,1.62,0,3.1,.39,4.42,1.17,1.32,.78,2.38,1.83,3.17,3.14s1.19,2.78,1.19,4.41v.78h-12.66c-.46,0-.92-.01-1.38-.04-.46-.03-.92-.06-1.38-.1,.06,1.3,.42,2.47,1.08,3.5s1.53,1.84,2.6,2.44c1.07,.59,2.26,.89,3.56,.89,1.22,0,2.36-.27,3.4-.81,1.04-.54,1.88-1.27,2.53-2.2l.63,2.59c-.84,.78-1.82,1.4-2.95,1.87-1.12,.46-2.33,.69-3.61,.69Zm-7.28-10.5c.46-.08,.93-.13,1.4-.15,.47-.02,.94-.03,1.4-.03h7.97c.48,0,.92,.01,1.31,.03,.39,.02,.78,.05,1.16,.09-.16-1.1-.55-2.08-1.16-2.95s-1.38-1.54-2.32-2.04c-.93-.5-1.96-.75-3.08-.75s-2.16,.26-3.1,.77c-.94,.51-1.73,1.2-2.36,2.08-.63,.87-1.04,1.86-1.22,2.96Z"/><path class="i" d="M212.09,271.69v-17.59h2.04v4c.66-1.32,1.58-2.35,2.77-3.07,1.18-.72,2.54-1.08,4.06-1.08l.57,2.19c-.16-.04-.32-.06-.48-.08-.16,0-.32-.01-.48-.01-1.18,0-2.25,.27-3.19,.81-.94,.54-1.69,1.32-2.24,2.33-.55,1.01-.83,2.22-.83,3.62v8.87h-2.22Z"/><path class="i" d="M226.43,250.31c-.3,0-.57-.07-.81-.21-.24-.14-.44-.33-.59-.59s-.23-.52-.23-.8c0-.32,.08-.6,.23-.84,.15-.24,.35-.44,.59-.59,.24-.15,.51-.23,.81-.23s.57,.08,.81,.23c.24,.15,.44,.35,.59,.59,.15,.24,.23,.52,.23,.84,0,.28-.08,.55-.23,.8s-.35,.45-.59,.59c-.24,.14-.51,.21-.81,.21Zm-1.11,21.38v-17.59h2.22v17.59h-2.22Z"/><path class="i" d="M241.89,272.06c-1.34,0-2.59-.24-3.74-.71-1.15-.47-2.16-1.13-3.02-1.97s-1.54-1.83-2.03-2.98c-.49-1.14-.74-2.38-.74-3.7s.23-2.44,.69-3.52c.46-1.08,1.1-2.03,1.92-2.84,.82-.81,1.77-1.45,2.86-1.91,1.08-.46,2.24-.69,3.46-.69,1.62,0,3.1,.39,4.42,1.17,1.32,.78,2.38,1.83,3.17,3.14s1.19,2.78,1.19,4.41v.78h-12.66c-.46,0-.92-.01-1.38-.04-.46-.03-.92-.06-1.38-.1,.06,1.3,.42,2.47,1.08,3.5s1.53,1.84,2.6,2.44c1.07,.59,2.26,.89,3.56,.89,1.22,0,2.36-.27,3.4-.81,1.04-.54,1.88-1.27,2.53-2.2l.63,2.59c-.84,.78-1.82,1.4-2.95,1.87-1.12,.46-2.33,.69-3.61,.69Zm-7.28-10.5c.46-.08,.93-.13,1.4-.15,.47-.02,.94-.03,1.4-.03h7.97c.48,0,.92,.01,1.31,.03,.39,.02,.78,.05,1.16,.09-.16-1.1-.55-2.08-1.16-2.95s-1.38-1.54-2.32-2.04c-.93-.5-1.96-.75-3.08-.75s-2.16,.26-3.1,.77c-.94,.51-1.73,1.2-2.36,2.08-.63,.87-1.04,1.86-1.22,2.96Z"/><path class="i" d="M254.79,271.69v-17.59h2.04v3.46c.64-1.22,1.52-2.17,2.65-2.83,1.12-.66,2.36-.99,3.7-.99s2.49,.32,3.56,.96c1.07,.64,1.93,1.55,2.59,2.72s.98,2.57,.98,4.2v10.07h-2.23v-9.74c0-1.8-.5-3.27-1.5-4.39-1-1.12-2.31-1.68-3.91-1.68-1,0-1.93,.25-2.8,.74-.86,.49-1.55,1.18-2.08,2.07-.52,.89-.78,1.96-.78,3.2v9.8h-2.22Z"/><path class="i" d="M284.04,272.06c-1.28,0-2.49-.24-3.61-.71-1.12-.47-2.11-1.13-2.96-1.97-.85-.84-1.52-1.82-2-2.93-.48-1.11-.72-2.29-.72-3.53s.24-2.48,.72-3.58c.48-1.1,1.15-2.07,2-2.9,.85-.83,1.84-1.49,2.96-1.97,1.12-.48,2.33-.72,3.61-.72s2.53,.25,3.67,.74c1.14,.49,2.13,1.15,2.98,1.97l-.66,2.8c-.62-1-1.45-1.81-2.5-2.44-1.04-.62-2.21-.93-3.52-.93s-2.46,.32-3.53,.95c-1.07,.63-1.92,1.48-2.54,2.54-.62,1.06-.93,2.25-.93,3.55s.31,2.46,.93,3.52,1.47,1.91,2.54,2.54c1.07,.63,2.25,.95,3.53,.95s2.48-.3,3.52-.92c1.04-.61,1.87-1.43,2.5-2.45l.66,2.8c-.84,.82-1.83,1.48-2.98,1.97-1.14,.49-2.37,.74-3.67,.74Z"/><path class="i" d="M302.33,272.06c-1.34,0-2.59-.24-3.74-.71-1.15-.47-2.16-1.13-3.02-1.97s-1.54-1.83-2.03-2.98c-.49-1.14-.74-2.38-.74-3.7s.23-2.44,.69-3.52c.46-1.08,1.1-2.03,1.92-2.84,.82-.81,1.77-1.45,2.86-1.91,1.08-.46,2.24-.69,3.46-.69,1.62,0,3.1,.39,4.42,1.17,1.32,.78,2.38,1.83,3.17,3.14s1.19,2.78,1.19,4.41v.78h-12.66c-.46,0-.92-.01-1.38-.04-.46-.03-.92-.06-1.38-.1,.06,1.3,.42,2.47,1.08,3.5s1.53,1.84,2.6,2.44c1.07,.59,2.26,.89,3.56,.89,1.22,0,2.36-.27,3.4-.81,1.04-.54,1.88-1.27,2.53-2.2l.63,2.59c-.84,.78-1.82,1.4-2.95,1.87-1.12,.46-2.33,.69-3.61,.69Zm-7.28-10.5c.46-.08,.93-.13,1.4-.15,.47-.02,.94-.03,1.4-.03h7.97c.48,0,.92,.01,1.31,.03,.39,.02,.78,.05,1.16,.09-.16-1.1-.55-2.08-1.16-2.95s-1.38-1.54-2.32-2.04c-.93-.5-1.96-.75-3.08-.75s-2.16,.26-3.1,.77c-.94,.51-1.73,1.2-2.36,2.08-.63,.87-1.04,1.86-1.22,2.96Z"/><path class="i" d="M325.09,271.69v-27.06h2.38v24.93h9.89v2.13h-12.27Z"/><path class="i" d="M348.52,271.94c-1.22,0-2.36-.23-3.41-.69-1.05-.46-1.98-1.11-2.8-1.94-.81-.83-1.45-1.79-1.91-2.89s-.69-2.26-.69-3.5,.23-2.44,.69-3.52,1.1-2.04,1.91-2.87c.81-.83,1.74-1.48,2.8-1.95,1.05-.47,2.19-.71,3.41-.71,1.44,0,2.77,.32,3.97,.96s2.18,1.49,2.95,2.56v-3.28h2.08v17.59h-2.08v-3.28c-.76,1.06-1.74,1.91-2.95,2.56s-2.53,.96-3.97,.96Zm.27-2.08c1.26,0,2.41-.31,3.44-.93,1.03-.62,1.85-1.46,2.47-2.51s.92-2.22,.92-3.5-.31-2.46-.92-3.52-1.43-1.9-2.47-2.53c-1.03-.62-2.18-.93-3.44-.93s-2.41,.31-3.44,.93c-1.03,.62-1.85,1.46-2.47,2.51-.61,1.05-.92,2.23-.92,3.53s.3,2.45,.92,3.5c.61,1.05,1.43,1.89,2.47,2.51,1.03,.62,2.18,.93,3.44,.93Z"/><path class="i" d="M372.54,271.94c-1.42,0-2.73-.32-3.92-.96-1.19-.64-2.18-1.49-2.96-2.56v3.28h-2.08v-28.87h2.26v14.34c.78-1,1.75-1.8,2.92-2.41,1.16-.6,2.43-.9,3.79-.9,1.22,0,2.37,.24,3.43,.71,1.06,.47,2,1.12,2.81,1.95,.81,.83,1.45,1.79,1.91,2.87s.69,2.25,.69,3.52-.23,2.41-.69,3.5-1.1,2.06-1.91,2.89c-.81,.83-1.75,1.48-2.81,1.94-1.06,.46-2.21,.69-3.43,.69Zm-.24-2.08c1.26,0,2.41-.31,3.44-.93,1.03-.62,1.85-1.46,2.47-2.51,.61-1.05,.92-2.22,.92-3.5s-.31-2.46-.92-3.52c-.61-1.06-1.43-1.9-2.47-2.53-1.03-.62-2.18-.93-3.44-.93s-2.41,.31-3.44,.93c-1.03,.62-1.85,1.46-2.47,2.51-.61,1.05-.92,2.23-.92,3.53s.31,2.45,.92,3.5,1.43,1.89,2.47,2.51c1.03,.62,2.18,.93,3.44,.93Z"/></g></svg>