<?xml version="1.0" encoding="UTF-8"?><svg id="a" xmlns="http://www.w3.org/2000/svg" viewBox="0 0 136.69 206.75"><defs><style>.b{fill:#67ada9;}.c{fill:#e3bc3d;}.d{fill:#f0ba7d;}.e{fill:#7d579a;}.f{fill:#65994c;}.g{fill:#a35563;}.h{fill:#478eb0;}.i{fill:#313f76;}</style></defs><path class="i" d="M77.22,0c13.63,10.35,24.56,24.78,29.51,41.29,1.93,5.83,3.62,11.8,3.83,17.95,.23,3.02,.63,7.79,.87,10.81,.83,15.08,7.94,21.82,18.15,31.65,.91,.9,2.1,1.6,2.62,2.75,.16,.44,.26,1.22,.21,1.81-.05,.87-.29,1.78-.88,2.41l.17-.16c-2.4,2.32-5.38,3.55-7.77,5.91-2.15,2.44-.69,6.06,.73,8.43,.54,.99,1.13,1.8,1.09,2.75-.76,5.02-7.2,6.7-11.14,8.38l5.77,2.08c1.28,.48,2.88,1.17,3.72,2.11,.36,.85,.66,1.93,.48,2.83-.06,.44-.34,.95-.56,1.27-1.98,2.36-3.93,5-4.33,8.19-.22,1.47-.11,2.97,.21,4.42,5.08,23.33-19.8,17.72-34.35,20.34-5.23,.48-8.93,4.76-9.93,9.74-1.63,5.92-2.34,12.05-2.89,18.15-.1,1.22-.19,2.44-.26,3.66,.87-6,1.9-12,3.46-17.86,.97-3.19,1.78-6.78,4.28-9.14,5.29-3.82,12.55-2.02,18.71-2.59,6.83-.31,14.45,.21,20.06-4.43,4.32-3.5,5.63-9.54,5.17-14.85-.34-3.74-1.67-7.37,1.16-10.54,1.42-1.81,2.78-3.01,3.23-5.38,.88-5.43-2.02-8.71-6.93-10.34l.09,4.41c4.17-1.71,7.94-5.58,8.29-10.28,.29-3.15-2.34-5.46-2.9-8.27,0,.03-.03,.18-.06,.2-.01,.02-.01,.02,.01-.01,2.38-1.89,5.23-3.43,7.45-5.59,2.3-2.59,2.74-6.56,1.48-9.73-.58-1.58-2.57-3.3-3.44-3.98-3.25-3.01-6.41-6.25-9.46-9.47-3.17-3.07-5.25-7.05-6.51-11.31-1.17-3.68-1.4-6.8-1.78-10.64-.63-5.02-.9-11.44-2.12-16.35C107.65,29.92,95.48,11.22,77.22,0Z"/><circle class="i" cx="58.58" cy="67.22" r="20.39"/><circle class="h" cx="78.96" cy="36.08" r="5.95"/><circle class="f" cx="93.2" cy="63.98" r="7.55"/><circle class="g" cx="49.88" cy="33.06" r="6.86"/><circle class="e" cx="53" cy="103.38" r="11.65"/><circle class="h" cx="28.47" cy="127.04" r="9.72"/><circle class="i" cx="79.69" cy="88.83" r="5.06"/><circle class="i" cx="4.55" cy="103.38" r="4.36"/><circle class="b" cx="6.92" cy="56.44" r="4.36"/><circle class="i" cx="28.02" cy="81.94" r="3.93"/><circle class="e" cx="29.02" cy="58.47" r="5.51"/><circle class="c" cx="28.47" cy="36.08" r="3.48"/><circle class="f" cx="6.2" cy="81.63" r="6.2"/><circle class="d" cx="23.82" cy="103.37" r="4.21"/></svg>